<svg viewBox="0 0 591 651" fill="none" xmlns="http://www.w3.org/2000/svg">
<g clip-path="url(#clip0)">
<path d="M563.3 136.63C598.44 178.16 594.45 252.44 580.07 312.03C565.53 371.77 540.45 417 505.31 471C470.17 525 425 587.9 365.22 602.44C305.44 616.98 231.35 583 166.18 529C101.01 475 44.61 400.68 29.6 311.55C14.6 222.25 40.78 117.94 105.96 76.41C171.14 34.88 275.44 56.12 364.74 71.14C453.87 86.31 528.15 95.1 563.3 136.63Z" fill="#F1F1F1"/>
<path d="M284.54 201.69C283.18 208.34 284.66 255.95 282.69 263.46C280.72 270.97 258.86 362.75 258.86 362.75L293.63 353.14C293.63 353.14 305.82 326.35 310.24 302.23C314.13 281 313.57 202.06 284.54 201.69Z" fill="#D18C65"/>
<path d="M250.79 222.71H228.23L215.31 173.71H237.88L250.79 222.71Z" fill="black"/>
<path d="M542.95 358.96H297.84V604.07H542.95V358.96Z" fill="#E0E0E0"/>
<path d="M343.23 432.57C356.871 432.57 367.93 421.511 367.93 407.87C367.93 394.229 356.871 383.17 343.23 383.17C329.589 383.17 318.53 394.229 318.53 407.87C318.53 421.511 329.589 432.57 343.23 432.57Z" fill="#A4A4A4"/>
<path d="M388.69 397.28H513.92" stroke="white" stroke-width="2.04" stroke-linecap="round" stroke-linejoin="round"/>
<path d="M388.69 418.45H444.21" stroke="white" stroke-width="2.04" stroke-linecap="round" stroke-linejoin="round"/>
<path d="M388.69 470.93H513.92" stroke="white" stroke-width="2.04" stroke-linecap="round" stroke-linejoin="round"/>
<path d="M388.69 492.1H444.21" stroke="white" stroke-width="2.04" stroke-linecap="round" stroke-linejoin="round"/>
<path d="M388.69 544.57H513.92" stroke="white" stroke-width="2.04" stroke-linecap="round" stroke-linejoin="round"/>
<path d="M388.69 565.74H444.21" stroke="white" stroke-width="2.04" stroke-linecap="round" stroke-linejoin="round"/>
<path d="M343.23 506.21C356.871 506.21 367.93 495.151 367.93 481.51C367.93 467.869 356.871 456.81 343.23 456.81C329.589 456.81 318.53 467.869 318.53 481.51C318.53 495.151 329.589 506.21 343.23 506.21Z" fill="white"/>
<path d="M343.23 579.86C356.871 579.86 367.93 568.801 367.93 555.16C367.93 541.519 356.871 530.46 343.23 530.46C329.589 530.46 318.53 541.519 318.53 555.16C318.53 568.801 329.589 579.86 343.23 579.86Z" fill="white"/>
<path d="M63.83 589.56L86.88 576.29L101.46 602.99L74.61 616.25L63.83 589.56Z" fill="#E49D75"/>
<path d="M232.94 576.29L238.08 605.8L269.25 600.5L258.97 567.01L232.94 576.29Z" fill="#E49D75"/>
<path d="M310.08 341.25C300.9 341.75 150.27 374.46 148.31 382.13C132.18 445.05 224.31 577.13 231.08 581.13C238.38 579.37 263.29 570.69 263.29 570.69L257.57 482.62L310.08 341.25Z" fill="#5FC5D1"/>
<path d="M81.4 620.39L63 581.93L12.93 534.02L0 541.14L49.57 636.14L81.4 620.39Z" fill="black"/>
<path d="M271.61 593.43L229.63 600.91L170.09 636.38L173.52 650.75L278.3 628.31L271.61 593.43Z" fill="black"/>
<path d="M426.28 302.23C432.14 306.92 438.28 328.06 438.99 335.23C446.66 418.41 309.75 467.39 290.79 475.61C272.79 490.66 115.79 606.4 106.22 609.14C96.65 611.88 81 575.14 82.37 570.23C83.74 565.32 313.85 334 313.85 334L426.28 302.23Z" fill="#6BD5E1"/>
<path d="M316.19 152.5C296.82 142.93 278.91 195.42 280.63 201.43C282.35 207.44 300.13 209.16 304.63 209.16C309.13 209.16 316.19 152.5 316.19 152.5Z" fill="#FFC78E"/>
<path d="M353.33 122.39C424.03 122.39 430.7 290.94 429.9 302.44C422.76 325.88 337.12 354.04 310.76 338.63C268.93 240.55 288.2 122.39 353.33 122.39Z" fill="#FFD98E"/>
<path d="M423.86 205.49C427.81 212.23 436.31 256.15 435.46 261.88C434.61 267.61 421.46 282.07 416.78 282.39C350.24 286.91 278.07 260.32 264.58 252.85C236.36 250.6 219.66 240.41 219.66 225.51C219.66 216.71 224.54 210.37 227.23 210.37C232.33 210.37 241.39 219.16 242.49 221.73C240.29 217.21 233.39 208.91 239.07 208.91C240.65 208.91 253.47 226.83 260.43 231.18C267.39 235.53 367.84 239.18 387.98 246.5C385.41 241.38 378.21 222.82 378.09 220.14C377.97 217.46 423.86 205.49 423.86 205.49Z" fill="#E49D75"/>
<path d="M227.653 93.8907L190.028 101.368C185.868 102.195 183.166 106.237 183.993 110.397L191.47 148.022C192.296 152.182 196.339 154.884 200.499 154.057L238.124 146.58C242.284 145.754 244.986 141.711 244.159 137.551L236.682 99.9264C235.855 95.7663 231.813 93.064 227.653 93.8907Z" fill="#6BD5E1"/>
<path d="M209.66 139.77L205.15 140.67C204.755 140.749 204.349 140.749 203.954 140.67C203.56 140.591 203.184 140.436 202.85 140.212C202.516 139.988 202.229 139.7 202.006 139.365C201.783 139.03 201.628 138.655 201.55 138.26L199.45 127.74C199.291 126.942 199.456 126.113 199.908 125.436C200.36 124.759 201.062 124.289 201.86 124.13L206.37 123.24M216.3 118.14L215.1 112.14C214.984 111.548 214.752 110.984 214.418 110.481C214.083 109.979 213.652 109.548 213.151 109.212C212.649 108.877 212.086 108.644 211.493 108.527C210.901 108.41 210.292 108.411 209.7 108.53L206.37 123.26L209.66 139.79L226.66 136.42C227.387 136.285 228.041 135.892 228.5 135.313C228.96 134.734 229.194 134.008 229.16 133.27L228.55 119.27C228.511 118.457 228.151 117.693 227.549 117.146C226.947 116.598 226.153 116.312 225.34 116.35C225.176 116.36 225.012 116.38 224.85 116.41L216.3 118.14Z" stroke="white" stroke-width="2.04" stroke-linecap="round" stroke-linejoin="round"/>
<path d="M221.78 162.66L226.46 148.88L212.18 151.72L221.78 162.66Z" fill="#6BD5E1"/>
<path d="M373.66 135.82C404.27 124.6 428.47 195.32 427.48 204.28C426.49 213.24 377.48 228.93 371.96 225.69C366.44 222.45 343.32 146.94 373.66 135.82Z" fill="#FFE4AD"/>
<path d="M355.33 91.72C355 95.97 357.59 119.72 361.64 127.47C359.85 130.99 341.45 141.22 332.64 139.03C331.44 132.45 328.25 114.78 325.64 109.4C330.35 106.94 355.33 91.72 355.33 91.72Z" fill="#D18C65"/>
<path d="M332.72 112.337C354.147 106.652 365.741 80.2714 358.615 53.4153C351.489 26.5591 328.342 9.39674 306.915 15.0821C285.488 20.7674 273.894 47.1475 281.02 74.0037C288.146 100.86 311.293 118.022 332.72 112.337Z" fill="#E49D75"/>
<path d="M338.67 63.05C336.45 63.17 327.98 58.85 326.1 45.89C319.99 44.89 293.05 47.76 278.93 58.89C273.7 60.89 269.46 62.56 261.55 62.56C257.8 62.56 254.62 58.64 254.62 55.95C254.62 48.54 257.8 41.36 267.09 40.88C259.27 40.71 252.02 35.88 252.02 32.32C252.02 27.59 262.77 13.08 281.52 19.44C277.12 16.26 272.15 13.16 272.15 10.15C272.15 5 279.56 0 292.52 0C312.57 0 334.42 8.31 339.14 14.26C341.34 13.12 344.14 11 349.5 11C362.86 11 367.34 54.28 361.56 68.79C360.129 69.7096 358.527 70.3319 356.85 70.62" fill="#FD8369"/>
<path d="M338.27 64C338.933 62.113 340.154 60.4719 341.77 59.2941C343.387 58.1164 345.323 57.4577 347.323 57.4051C349.322 57.3526 351.291 57.9088 352.967 59C354.643 60.0912 355.948 61.666 356.709 63.5156C357.471 65.3653 357.652 67.4025 357.229 69.3575C356.806 71.3125 355.8 73.0929 354.342 74.4629C352.885 75.8329 351.046 76.7278 349.069 77.0291C347.091 77.3304 345.069 77.0238 343.27 76.15" fill="#E49D75"/>
</g>
<defs>
<clipPath id="clip0">
<rect width="590.57" height="650.75" fill="white"/>
</clipPath>
</defs>
</svg>
