<svg width="44" height="49" viewBox="0 0 44 49" fill="none" xmlns="http://www.w3.org/2000/svg">
<path d="M30.8574 1.02296L5.14736 6.13233C2.30455 6.69729 0.457986 9.45983 1.02294 12.3026L6.13232 38.0126C6.69727 40.8555 9.45981 42.702 12.3026 42.1371L38.0126 37.0277C40.8554 36.4628 42.702 33.7002 42.1371 30.8574L37.0277 5.14738C36.4627 2.30457 33.7002 0.458004 30.8574 1.02296Z" fill="#FFD98E"/>
<path d="M18.5624 32.374L15.4806 32.989C15.2109 33.0427 14.9333 33.0427 14.6636 32.989C14.3939 32.9352 14.1375 32.8288 13.909 32.6759C13.6805 32.5229 13.4844 32.3264 13.3319 32.0975C13.1795 31.8687 13.0737 31.612 13.0206 31.3422L11.5855 24.1535C11.477 23.608 11.5894 23.0417 11.8982 22.5791C12.2071 22.1165 12.687 21.7955 13.2324 21.6866L16.3142 21.0785M23.0998 17.5935L22.2798 13.4934C22.2005 13.0886 22.0421 12.7035 21.8135 12.3601C21.5849 12.0167 21.2906 11.722 20.9477 11.4927C20.6048 11.2634 20.2199 11.1042 19.8153 11.0243C19.4106 10.9443 18.9941 10.9451 18.5897 11.0266L16.3142 21.0921L18.5624 32.3877L30.1791 30.0848C30.6759 29.9929 31.1225 29.7243 31.4366 29.3286C31.7506 28.933 31.9108 28.437 31.8875 27.9323L31.4706 18.3656C31.4441 17.8102 31.1981 17.2881 30.7868 16.914C30.3755 16.5398 29.8325 16.3443 29.2771 16.3703C29.1648 16.3772 29.053 16.3909 28.9423 16.4113L23.0998 17.5935Z" stroke="white" stroke-width="2.04" stroke-linecap="round" stroke-linejoin="round"/>
<path d="M26.8445 48.0156L30.0425 38.5992L20.2844 40.5399L26.8445 48.0156Z" fill="#FFD98E"/>
</svg>
