<svg viewBox="0 0 722 683" fill="none" xmlns="http://www.w3.org/2000/svg">
<path d="M387.709 247.246L452.575 248.845" stroke="#FD8369" stroke-width="8" stroke-miterlimit="10" stroke-linecap="round"/>
<path d="M140.95 382.676V483.831L237.572 534.008L398.166 494.184L400.173 391.441L290.85 346.056L140.95 382.676Z" fill="#FD8369"/>
<path d="M318.894 344.138C321.936 340.894 403.008 372.254 414.561 387.326C426.113 402.397 345.825 516.222 313.151 538.902C309.501 536.563 300.656 530.633 300.656 530.633C300.656 530.633 328.141 451.691 353.125 425.077C346.786 423.461 326.218 418.424 326.218 418.424L303.667 352.402C307.25 351.008 314.903 348.39 318.894 344.138Z" fill="#56CAD8"/>
<path d="M303.667 352.397L414.56 564.776L398.494 571.037C398.494 571.037 316.698 474.787 314.064 467.61C309.264 464.913 230.521 406.671 221.646 364.73C234.244 366.808 282.564 362.55 303.667 352.397Z" fill="#74D5DE"/>
<path d="M344.955 232.055C351.489 236.449 358.661 245.356 362.384 276.073C368.984 273.228 407.23 256.119 407.23 256.119C407.23 256.119 416.538 261.031 414.676 263.404C412.815 265.777 368.139 308.845 354.938 311.537C344.596 313.757 318.553 281.611 317.878 278.128C317.203 274.645 329.382 236.961 329.382 236.961L344.955 232.055Z" fill="#DE8E68"/>
<path d="M429.663 256.683C433.454 249.108 431.083 240.582 424.368 237.64C417.653 234.699 409.136 238.455 405.345 246.03C401.554 253.605 403.924 262.131 410.639 265.073C417.355 268.014 425.872 264.258 429.663 256.683Z" fill="#DE8E68"/>
<path d="M293.125 193.808C313.2 180.342 356.842 220.621 355.783 228.151C354.725 235.68 330.027 265.487 313.699 258.253C297.371 251.019 278.854 203.364 293.125 193.808Z" fill="#FCC486"/>
<path d="M271.225 176.09C189.66 176.09 208.153 351.219 217.491 361.133C239.306 372.471 309.41 356.517 318.906 344.138C326.462 333.99 345.442 176.09 271.225 176.09Z" fill="#FED385"/>
<path d="M188.358 235.988C183.649 242.026 161.257 296.318 166.902 311.856C176.854 339.175 245.626 389.693 245.626 389.693C246.843 385.14 249.818 372.049 249.818 372.049C249.818 372.049 202.854 310.956 200.409 306.38C204.247 300.826 221.007 270.12 222.583 254.11C224.158 238.099 188.358 235.988 188.358 235.988Z" fill="#DE8E68"/>
<path d="M282.783 187.855C282.783 193.466 256.668 193.136 256.668 187.855V152.083H282.783V187.855Z" fill="#D37C59"/>
<path d="M280.584 173.242C294.202 173.002 304.933 157.516 304.553 138.653C304.173 119.79 292.825 104.693 279.207 104.933C265.589 105.173 254.858 120.66 255.238 139.523C255.618 158.386 266.966 173.482 280.584 173.242Z" fill="#DE8E68"/>
<path d="M254.715 153.91C258.639 153.91 261.82 150.934 261.82 147.263C261.82 143.591 258.639 140.615 254.715 140.615C250.791 140.615 247.609 143.591 247.609 147.263C247.609 150.934 250.791 153.91 254.715 153.91Z" fill="#DE8E68"/>
<path d="M324.722 93.2728C324.722 85.077 318.03 81.3206 312.555 81.3206C302.676 81.3206 297.152 88.7195 288.222 88.7195C278.628 88.7195 276.378 83.5972 266.322 83.5972C246.892 83.5972 248.881 102.322 244.872 108.219C239.829 115.618 236.513 123.199 236.513 128.56C236.513 138.395 242.98 142.721 248.224 144.542C248.798 143.372 249.724 142.383 250.888 141.696C252.052 141.008 253.404 140.652 254.78 140.67C256.157 140.688 257.498 141.08 258.64 141.797C259.783 142.515 260.679 143.528 261.218 144.713C264.904 143.222 265.202 140.598 265.202 139.733C265.202 136.597 261.595 131.195 266.687 126.301C270.982 122.163 294.95 123.506 299.208 118.737C300.826 121.013 302.414 125.743 302.858 127.035C304.058 127.275 305.281 127.405 306.508 127.422C317.245 127.422 321.108 122.3 321.108 118.885C321.108 113.762 316.242 111.867 316.242 108.64C316.205 102.926 324.722 103.637 324.722 93.2728Z" fill="#FD8369"/>
<path d="M228.033 193.586C250.189 203.045 234.056 256.193 226.592 258.913C219.127 261.634 179.64 256.21 178.436 239.995C177.231 223.78 212.326 186.87 228.033 193.586Z" fill="#FED892"/>
<path d="M398.166 570.456L413.246 564.543H444.57L446.577 569.381L404.486 584.839L398.166 570.456Z" fill="black"/>
<path d="M300.857 530.371L313.979 539.5L329.941 564.708L326.516 568.794L290.85 542.79L300.857 530.371Z" fill="black"/>
<path d="M629.868 265.902C632.91 275.225 607.39 277.155 605.942 272.692C604.494 268.23 626.632 255.931 629.868 265.902Z" fill="#74D5DE"/>
<path d="M625.883 289.955C630.652 298.612 605.942 304.816 603.661 300.672C601.38 296.529 620.749 280.689 625.883 289.955Z" fill="#74D5DE"/>
<path d="M627.325 318.185C632.094 326.842 607.39 333.046 605.103 328.902C602.815 324.759 622.233 308.919 627.325 318.185Z" fill="#74D5DE"/>
<path d="M628.268 344.337C632.605 352.209 611.046 357.428 608.972 353.643C606.897 349.858 623.626 335.92 628.268 344.337Z" fill="#74D5DE"/>
<path d="M630.981 373.364C635.319 381.236 613.759 386.455 611.685 382.67C609.61 378.885 626.333 364.941 630.981 373.364Z" fill="#74D5DE"/>
<path d="M564.004 485.004C564.74 481.811 600.37 458.02 608.807 421.213C622.555 361.219 593.635 323.985 603.454 281.127C605.279 273.028 611.97 247.667 628.079 240.12" stroke="#74D5DE" stroke-width="9" stroke-miterlimit="10" stroke-linecap="round"/>
<path d="M594.171 411.241C602.371 406.813 608.953 426.711 605.023 428.834C601.094 430.957 585.393 415.982 594.171 411.241Z" fill="#74D5DE"/>
<path d="M593.721 387.952C599.999 381.321 612.975 398.248 609.969 401.423C606.964 404.599 586.999 395.043 593.721 387.952Z" fill="#74D5DE"/>
<path d="M594.566 360.644C600.844 354.013 613.82 370.94 610.815 374.116C607.81 377.291 587.844 367.741 594.566 360.644Z" fill="#74D5DE"/>
<path d="M590.125 337.9C594.992 330.291 611.101 344.645 608.783 348.287C606.465 351.93 584.942 346.045 590.125 337.9Z" fill="#74D5DE"/>
<path d="M583.677 306.511C589.761 299.727 603.223 316.312 600.309 319.562C597.395 322.812 577.162 313.774 583.677 306.511Z" fill="#74D5DE"/>
<path d="M584.863 273.193C591.555 266.961 603.363 284.633 600.145 287.621C596.927 290.61 577.667 279.887 584.863 273.193Z" fill="#74D5DE"/>
<path d="M606.417 230.632C613.108 224.371 624.916 242.072 621.698 245.06C618.48 248.048 599.202 237.303 606.417 230.632Z" fill="#74D5DE"/>
<path d="M563.292 385.134C561.503 380.672 560.25 368.487 560.25 362.562C560.25 322.772 534.998 315.322 522.083 315.322C496.947 315.322 482.767 337.069 482.767 354.907C482.767 370.683 489.921 384.707 498.693 396.557C499.967 395.1 501.572 393.926 503.392 393.122C505.211 392.317 507.199 391.902 509.212 391.907C511.224 391.911 513.21 392.335 515.026 393.148C516.841 393.96 518.44 395.141 519.707 396.604C520.974 398.067 521.876 399.776 522.349 401.606C522.821 403.436 522.852 405.342 522.439 407.185C522.025 409.027 521.178 410.761 519.959 412.259C518.74 413.757 517.18 414.982 515.392 415.846C522.637 423.404 528.629 429.272 530.119 433.199C535.187 446.324 532.991 452.55 535.856 458.97C542.84 474.616 549.951 482.761 558.462 482.067C578.196 480.456 586.001 464.799 586.001 424.337C586.031 412.875 570.081 402.049 563.292 385.134Z" fill="#74D5DE"/>
<path opacity="0.5" d="M516.079 341.691L400.173 366.933V121.116L516.079 92.6296V341.691Z" fill="#F7F7F7"/>
<path d="M595.576 557.81H541.781C540.557 557.81 539.364 557.45 538.371 556.779C537.378 556.109 536.637 555.163 536.252 554.076L509.515 478.196C509.226 477.379 509.149 476.509 509.29 475.658C509.43 474.807 509.785 473.999 510.324 473.301C510.863 472.603 511.572 472.035 512.392 471.643C513.211 471.252 514.119 471.048 515.039 471.048H622.574C623.496 471.048 624.405 471.253 625.226 471.646C626.047 472.039 626.756 472.609 627.295 473.309C627.835 474.008 628.189 474.818 628.328 475.671C628.468 476.523 628.389 477.395 628.098 478.213L601.1 554.087C600.714 555.172 599.973 556.115 598.981 556.783C597.99 557.452 596.798 557.811 595.576 557.81Z" fill="#FD8369"/>
</svg>
