<svg viewBox="0 0 630 582" fill="none" xmlns="http://www.w3.org/2000/svg">
<path d="M107.861 234.279H92.4V350.495" stroke="#DFDFDF" stroke-width="4" stroke-miterlimit="10"/>
<path d="M274.942 219.943H137.172V465.052H274.942V219.943Z" fill="#F3F3F3"/>
<path d="M137.55 219.943H105.504V465.052H137.55V219.943Z" fill="#DFDFDF"/>
<path d="M138.043 472.39C106.948 472.39 53.8912 428.551 53.8912 392.142C53.8912 389.373 55.314 384.144 58.4535 384.144C75.4267 384.12 138.043 430.859 138.043 472.39Z" fill="#56CAD8"/>
<path d="M344.174 153.604V313.582H354.113" stroke="#DFDFDF" stroke-width="4" stroke-miterlimit="10"/>
<path d="M508.132 489.142L474.017 436.112" stroke="#ED7562" stroke-width="4" stroke-linecap="round" stroke-linejoin="round"/>
<path d="M522.926 489.142L488.812 436.112" stroke="#ED7562" stroke-width="4" stroke-linecap="round" stroke-linejoin="round"/>
<path d="M414.026 489.142L448.135 436.112" stroke="#ED7562" stroke-width="4" stroke-linecap="round" stroke-linejoin="round"/>
<path d="M492.45 324.368H542.887L509.014 437.776H423.082V433.735H486.812L492.45 324.368Z" fill="#ED7562"/>
<path d="M417.474 485.048L407.913 486.422L409.242 494.315L418.803 492.941L417.474 485.048Z" fill="#DE8E68"/>
<path d="M361.183 480.055L353.068 475.187L348.359 481.886L356.474 486.755L361.183 480.055Z" fill="#DE8E68"/>
<path d="M393.004 398.796C385.943 398.796 350.7 474.597 350.7 477.366C350.7 480.135 358.349 483.278 359.478 483.278C361.237 481.77 394.973 436.718 398.485 433.575C401.998 430.433 393.004 398.796 393.004 398.796Z" fill="#56CAD8"/>
<path d="M449.085 343.133C446.764 343.807 435.435 352.774 433.456 363.546C431.44 363.323 419.344 362.858 414.304 362.668C412.655 360.297 409.185 358.653 405.158 358.653C399.546 358.653 394.994 361.839 394.994 365.768C394.994 365.855 394.994 365.937 394.994 366.025H415.285C415.285 365.937 415.285 365.855 415.285 365.768C415.279 364.775 414.989 363.801 414.445 362.945L432.075 365.54L453.017 367.552L455.175 350.655L449.085 343.133Z" fill="#D37C59"/>
<path d="M466.473 331.129C466.473 329.766 462.798 328.219 460.099 328.219C452.897 328.219 440.711 340.344 440.711 341.867C440.711 343.39 449.484 350.17 456.225 350.577C462.966 350.985 466.473 331.129 466.473 331.129Z" fill="#FCC486"/>
<path d="M484.365 321.409C525.079 321.409 515.776 406.377 510.615 409.966C505.454 413.555 460.215 413.884 457.27 410.295C454.325 406.706 436.049 321.409 484.365 321.409Z" fill="#FED385"/>
<path d="M491.521 305.157H475.246V325.299C475.246 328.495 491.521 328.52 491.521 325.299V305.157Z" fill="#D37C59"/>
<path d="M496.154 297.527C498.234 285.478 492.808 274.663 484.034 273.371C475.261 272.079 466.463 280.798 464.383 292.847C462.304 304.896 467.73 315.711 476.503 317.003C485.276 318.296 494.074 309.576 496.154 297.527Z" fill="#DE8E68"/>
<path d="M518.437 262.627C526.312 262.627 534.187 266.507 544.162 266.507C552.037 266.507 559.387 263.597 568.837 263.597C585.637 263.597 590.887 273.782 590.887 280.087C590.887 296.093 576.712 302.398 566.212 302.398C549.412 302.398 547.312 291.728 527.362 291.728C507.937 291.728 510.562 277.177 506.362 277.177C504.262 277.177 502.95 277.42 502.162 278.147C501.375 278.875 497.438 276.207 497.438 275.237C497.438 274.267 502.687 262.627 518.437 262.627Z" fill="black"/>
<path d="M483.262 267.963C464.693 267.963 460.808 281.014 460.808 284.782C460.808 288.551 463.386 291.344 464.704 291.436C465.523 286.931 469.429 280.713 469.612 280.573C470.662 281.543 474.553 284.656 478.537 284.937C481.857 285.095 485.08 286.022 487.909 287.634C488.143 288.887 488.654 290.083 489.41 291.145C490.485 292.744 492.107 293.965 494.02 294.613C494.486 295.696 494.754 296.844 494.812 298.008C494.812 303.188 494.287 305.283 493.762 306.738C502.32 306.738 506.362 298.595 506.362 288.308C506.362 271.372 490.14 267.963 483.262 267.963Z" fill="black"/>
<path d="M494.786 302.301C497.291 302.301 499.322 300.424 499.322 298.11C499.322 295.796 497.291 293.92 494.786 293.92C492.281 293.92 490.25 295.796 490.25 298.11C490.25 300.424 492.281 302.301 494.786 302.301Z" fill="#DE8E68"/>
<path d="M479.588 352.774C477.755 353.182 470.411 357.387 466.006 364.642C461.675 363.896 444.056 359.826 428.416 359.826C426.946 359.826 423.129 358.711 421.591 358.711C412.419 358.711 410.503 363.289 410.503 364.642C410.503 365.996 410.818 366.034 411.101 366.034C442.601 366.034 450.524 378.31 468.242 378.31C473.975 378.31 485.793 374.473 492.917 364.647C490.418 356.819 479.588 352.774 479.588 352.774Z" fill="#DE8E68"/>
<path d="M510.552 336.236C520.39 345.058 495.511 369.478 491.521 369.119C487.531 368.76 473.146 354.768 473.009 350.514C472.873 346.261 501.044 327.705 510.552 336.236Z" fill="#FED892"/>
<path d="M530.775 367.121H308.579V373.746H530.775V367.121Z" fill="#FD8369"/>
<path d="M510.526 414.19C510.526 412.104 510.92 409.689 509.513 409.151C476.112 396.429 427.214 394.78 419.68 394.78C412.146 394.78 390.117 395.488 390.117 401.313C390.117 422.353 402.806 487.124 405.384 489.544C406.607 490.684 417.275 489.923 418.604 488.691C418.514 483.356 421.869 429.768 418.808 423.279C446.88 432.785 478.758 437.286 487.158 437.286C511.502 437.261 510.526 416.663 510.526 414.19Z" fill="#74D5DE"/>
<path d="M357.273 485.757L348.8 480.538L325.994 476.125L323.825 479.432L350.7 494.783L357.273 485.757Z" fill="black"/>
<path d="M419.596 490.859L409.542 492.319L389.524 503.338L390.353 507.135L421.381 501.616L419.596 490.859Z" fill="black"/>
<path d="M518.836 472.55V371.893" stroke="#FD8369" stroke-width="4" stroke-linecap="round" stroke-linejoin="round"/>
<path d="M334.22 472.55V371.893" stroke="#FD8369" stroke-width="4" stroke-linecap="round" stroke-linejoin="round"/>
<path d="M503.233 492.721V371.893" stroke="#FD8369" stroke-width="4" stroke-linecap="round" stroke-linejoin="round"/>
<path d="M317.735 492.721V371.893" stroke="#FD8369" stroke-width="4" stroke-linecap="round" stroke-linejoin="round"/>
<path d="M429.203 489.142L463.312 436.112" stroke="#ED7562" stroke-width="4" stroke-linecap="round" stroke-linejoin="round"/>
<path d="M427.009 365.903H390.117V367.121H427.009V365.903Z" fill="#74D5DE"/>
<path d="M429.739 286.562H349.193V340.596H429.739V286.562Z" fill="#74D5DE"/>
<path d="M378.152 330.435L367.043 367.121H386.515L397.299 330.435H378.152Z" fill="#56CAD8"/>
<path d="M393.85 156.214C397.717 152.719 400.159 148.099 400.764 143.133C401.37 138.167 400.101 133.161 397.172 128.959C394.243 124.758 389.834 121.62 384.69 120.074C379.546 118.529 373.982 118.672 368.938 120.479C365.714 115.913 361.206 112.244 355.898 109.862C350.59 107.481 344.68 106.478 338.803 106.959C332.925 107.441 327.299 109.39 322.527 112.597C317.756 115.805 314.018 120.15 311.714 125.169C307.172 123.472 302.17 123.13 297.408 124.19C292.646 125.25 288.362 127.659 285.155 131.081C281.949 134.502 279.981 138.764 279.527 143.27C279.073 147.775 280.156 152.3 282.623 156.209L393.85 156.214Z" fill="#DFDFDF"/>
<path d="M335.974 152.106V186.89H220.437V219.943" stroke="#DFDFDF" stroke-width="4" stroke-miterlimit="10"/>
<path d="M155.652 492.721C158.723 492.721 164.708 483.108 164.708 464.465C164.708 450.832 154.366 442.014 151.294 428.507C146.569 407.793 123.17 346.945 86.6355 346.945C82.4355 346.945 76.797 355.098 76.797 371.893C76.797 392.263 98.154 413.356 98.154 417.73C98.175 467.681 145.861 492.721 155.652 492.721Z" fill="#74D5DE"/>
<path d="M155.888 492.721C155.888 489.991 151.615 471.672 149.394 467.094C147.173 462.515 138.453 439.619 137.088 433.299C135.723 426.979 110.423 365.244 86.6617 349.607" stroke="#8BDDE4" stroke-width="3" stroke-linecap="round" stroke-linejoin="round"/>
<path d="M144.984 456.312L105.126 448.814" stroke="#8BDDE4" stroke-width="3" stroke-linecap="round" stroke-linejoin="round"/>
<path d="M146.989 461.429L110.486 458.621" stroke="#8BDDE4" stroke-width="3" stroke-linecap="round" stroke-linejoin="round"/>
<path d="M135.502 428.527L98.4532 418.167" stroke="#8BDDE4" stroke-width="3" stroke-linecap="round" stroke-linejoin="round"/>
<path d="M139.03 439.871L150.339 432.276" stroke="#8BDDE4" stroke-width="3" stroke-linecap="round" stroke-linejoin="round"/>
<path d="M117.621 389.969L128.793 378.266" stroke="#8BDDE4" stroke-width="3" stroke-linecap="round" stroke-linejoin="round"/>
<path d="M114.13 383.737L123.637 371.82" stroke="#8BDDE4" stroke-width="3" stroke-linecap="round" stroke-linejoin="round"/>
<path d="M263.524 235.448H148.585V255.915H263.524V235.448Z" fill="#DFDFDF"/>
<path d="M255.271 246.7C257.416 246.7 259.156 245.093 259.156 243.111C259.156 241.129 257.416 239.522 255.271 239.522C253.125 239.522 251.386 241.129 251.386 243.111C251.386 245.093 253.125 246.7 255.271 246.7Z" fill="#F3F3F3"/>
<path d="M188.275 243.111H248.115" stroke="#F3F3F3" stroke-width="4" stroke-linecap="round" stroke-linejoin="round"/>
<path d="M263.524 270.048H148.585V290.515H263.524V270.048Z" fill="#DFDFDF"/>
<path d="M255.271 281.3C257.416 281.3 259.156 279.693 259.156 277.711C259.156 275.729 257.416 274.122 255.271 274.122C253.125 274.122 251.386 275.729 251.386 277.711C251.386 279.693 253.125 281.3 255.271 281.3Z" fill="#F3F3F3"/>
<path d="M188.275 277.711H248.115" stroke="#F3F3F3" stroke-width="4" stroke-linecap="round" stroke-linejoin="round"/>
<path d="M263.524 304.643H148.585V325.11H263.524V304.643Z" fill="#DFDFDF"/>
<path d="M255.271 315.895C257.416 315.895 259.156 314.288 259.156 312.306C259.156 310.324 257.416 308.717 255.271 308.717C253.125 308.717 251.386 310.324 251.386 312.306C251.386 314.288 253.125 315.895 255.271 315.895Z" fill="#F3F3F3"/>
<path d="M188.275 312.306H248.115" stroke="#F3F3F3" stroke-width="4" stroke-linecap="round" stroke-linejoin="round"/>
<path d="M263.524 339.243H148.585V359.71H263.524V339.243Z" fill="#DFDFDF"/>
<path d="M255.271 350.495C257.416 350.495 259.156 348.888 259.156 346.906C259.156 344.924 257.416 343.317 255.271 343.317C253.125 343.317 251.386 344.924 251.386 346.906C251.386 348.888 253.125 350.495 255.271 350.495Z" fill="#F3F3F3"/>
<path d="M188.275 346.906H248.115" stroke="#F3F3F3" stroke-width="4" stroke-linecap="round" stroke-linejoin="round"/>
<path d="M263.524 373.838H148.585V394.305H263.524V373.838Z" fill="#DFDFDF"/>
<path d="M255.271 385.095C257.416 385.095 259.156 383.488 259.156 381.506C259.156 379.524 257.416 377.917 255.271 377.917C253.125 377.917 251.386 379.524 251.386 381.506C251.386 383.488 253.125 385.095 255.271 385.095Z" fill="#F3F3F3"/>
<path d="M188.275 381.506H248.115" stroke="#F3F3F3" stroke-width="4" stroke-linecap="round" stroke-linejoin="round"/>
<path d="M112.906 250.173H130.147" stroke="#F3F3F3" stroke-width="2" stroke-linecap="round" stroke-linejoin="round"/>
<path d="M112.906 254.295H130.147" stroke="#F3F3F3" stroke-width="2" stroke-linecap="round" stroke-linejoin="round"/>
<path d="M112.906 278.22H130.147" stroke="#F3F3F3" stroke-width="2" stroke-linecap="round" stroke-linejoin="round"/>
<path d="M112.906 282.343H130.147" stroke="#F3F3F3" stroke-width="2" stroke-linecap="round" stroke-linejoin="round"/>
<path d="M112.906 312.306H130.147" stroke="#F3F3F3" stroke-width="2" stroke-linecap="round" stroke-linejoin="round"/>
<path d="M112.906 316.433H130.147" stroke="#F3F3F3" stroke-width="2" stroke-linecap="round" stroke-linejoin="round"/>
<path d="M112.906 345.286H130.147" stroke="#F3F3F3" stroke-width="2" stroke-linecap="round" stroke-linejoin="round"/>
<path d="M112.906 349.413H130.147" stroke="#F3F3F3" stroke-width="2" stroke-linecap="round" stroke-linejoin="round"/>
<line x1="430.778" y1="282.533" x2="434.776" y2="274.884" stroke="black" stroke-width="0.5"/>
<line x1="420.778" y1="286.623" x2="428.481" y2="271.884" stroke="black" stroke-width="0.5"/>
<line x1="434.887" y1="284.693" x2="442.577" y2="280.777" stroke="black" stroke-width="0.5"/>
<path d="M573.838 85.7895L594.506 101.532L570.538 111.56L573.838 85.7895Z" fill="#74D5DE"/>
<circle cx="598.581" cy="103.581" r="14.5" stroke="black" stroke-opacity="0.2"/>
</svg>
